HIERARCHY
ROOT Pelvis
{
	OFFSET 0.000000 0.000000 0.000000
	CHANNELS 6 Xposition Yposition Zposition Xrotation Yrotation Zrotation
	JOINT LeftUpLeg_virtual
	{
		OFFSET 0.000000 0.000000 0.000000
		CHANNELS 3 Xrotation Yrotation Zrotation
		JOINT LeftUpLeg
		{
			OFFSET 18.735201 -5.666702 -4.541200
			CHANNELS 3 Xrotation Yrotation Zrotation
			JOINT LeftLeg
			{
				OFFSET -0.021200 -31.938179 0.493100
				CHANNELS 3 Xrotation Yrotation Zrotation
				JOINT LeftFoot
				{
					OFFSET 0.021200 -31.938179 -4.336299
					CHANNELS 3 Xrotation Yrotation Zrotation
					JOINT LeftToeBase
					{
						OFFSET 0.943001 -26.722000 15.023500
						CHANNELS 3 Xrotation Yrotation Zrotation
						End Site
						{
							OFFSET 0 0 0
						}
					}
				}
			}
		}
	}
	JOINT RightUpLeg_virtual
	{
		OFFSET 0.000000 0.000000 0.000000
		CHANNELS 3 Xrotation Yrotation Zrotation
		JOINT RightUpLeg
		{
			OFFSET -18.735201 -5.666702 -4.541200
			CHANNELS 3 Xrotation Yrotation Zrotation
			JOINT RightLeg
			{
				OFFSET 0.018946 -31.938133 0.493100
				CHANNELS 3 Xrotation Yrotation Zrotation
				JOINT RightFoot
				{
					OFFSET -0.018946 -31.938126 -4.336299
					CHANNELS 3 Xrotation Yrotation Zrotation
					JOINT RightToeBase
					{
						OFFSET -0.943001 -26.722004 15.023500
						CHANNELS 3 Xrotation Yrotation Zrotation
						End Site
						{
							OFFSET 0 0 0
						}
					}
				}
			}
		}
	}
	JOINT Hips_virtual
	{
		OFFSET 0.000000 0.000000 0.000000
		CHANNELS 3 Xrotation Yrotation Zrotation
		JOINT Hips
		{
			OFFSET -0.000000 -0.000000 -0.000000
			CHANNELS 3 Xrotation Yrotation Zrotation
			JOINT Spine
			{
				OFFSET 0.000000 10.199997 -0.299500
				CHANNELS 3 Xrotation Yrotation Zrotation
				JOINT Spine1
				{
					OFFSET 0.000000 11.900002 -1.516600
					CHANNELS 3 Xrotation Yrotation Zrotation
					JOINT Spine2
					{
						OFFSET 0.000000 13.600006 -2.842500
						CHANNELS 3 Xrotation Yrotation Zrotation
						JOINT Neck_virtual
						{
							OFFSET 0.000000 0.000000 0.000000
							CHANNELS 3 Xrotation Yrotation Zrotation
							JOINT Neck
							{
								OFFSET 0.000000 9.624100 -2.890100
								CHANNELS 3 Xrotation Yrotation Zrotation
								JOINT Head
								{
									OFFSET 0.000000 14.068802 -1.351900
									CHANNELS 3 Xrotation Yrotation Zrotation
									End Site
									{
										OFFSET 0 0 0
									}
								}
							}
						}
						JOINT LeftShoulder_virtual
						{
							OFFSET 0.000000 0.000000 0.000000
							CHANNELS 3 Xrotation Yrotation Zrotation
							JOINT LeftShoulder
							{
								OFFSET 15.263000 10.923401 -0.547700
								CHANNELS 3 Xrotation Yrotation Zrotation
								JOINT LeftArm
								{
									OFFSET 25.438599 -2.830597 -13.032500
									CHANNELS 3 Xrotation Yrotation Zrotation
									JOINT LeftForeArm
									{
										OFFSET 29.960503 0.000000 0.000000
										CHANNELS 3 Xrotation Yrotation Zrotation
										JOINT LeftHand
										{
											OFFSET 27.849251 0.000000 0.000000
											CHANNELS 3 Xrotation Yrotation Zrotation
											End Site
											{
												OFFSET 0 0 0
											}
										}
									}
								}
							}
						}
						JOINT RightShoulder_virtual
						{
							OFFSET 0.000000 0.000000 0.000000
							CHANNELS 3 Xrotation Yrotation Zrotation
							JOINT RightShoulder
							{
								OFFSET -15.263000 10.923401 -0.547700
								CHANNELS 3 Xrotation Yrotation Zrotation
								JOINT RightArm
								{
									OFFSET -25.438599 -2.830597 -13.032500
									CHANNELS 3 Xrotation Yrotation Zrotation
									JOINT RightForeArm
									{
										OFFSET -29.960503 0.000000 0.000000
										CHANNELS 3 Xrotation Yrotation Zrotation
										JOINT RightHand
										{
											OFFSET -27.849251 0.000000 0.000000
											CHANNELS 3 Xrotation Yrotation Zrotation
											End Site
											{
												OFFSET 0 0 0
											}
										}
									}
								}
							}
						}
					}
				}
			}
		}
	}
}
MOTION
Frames: 6
Frame Time: 0.03333333
59.166054 50.907806 18.244181 0.000000 0.000000 0.000000 -121.734421 -44.483738 -172.976221 -38.916157 -20.272934 -28.555961 74.682354 46.107049 -40.544358 27.330917 -8.361359 -9.831306 0.000000 0.000000 0.000000 -135.107494 -53.651802 176.690300 -24.793230 1.509226 -23.526250 114.391503 20.894855 -2.385149 -4.323604 30.548796 31.716397 0.000000 0.000000 0.000000 -125.858257 -64.019158 -172.840819 -4.081995 -3.070419 0.695147 -4.547884 -11.369004 -2.791725 -3.004724 -1.481083 -9.818282 0.000000 0.000000 0.000000 -5.087947 1.598855 -5.828533 9.832850 2.348063 3.100793 0.000000 0.000000 0.000000 16.495168 4.156343 2.778026 12.442906 -43.351173 13.538441 -7.457382 32.910877 46.437124 -20.670041 -22.260560 112.871752 0.000000 0.000000 0.000000 -6.224656 -8.763332 -12.299870 54.403201 2.315135 -7.498605 -25.286629 -40.338643 -65.078630 38.734232 27.153998 104.335955 0.000000 0.000000 0.000000 
59.941452 50.896622 20.055370 0.000000 0.000000 0.000000 -124.980878 -46.212783 -178.285860 -36.270873 -21.915784 -27.249663 74.760730 45.532111 -40.404247 25.698085 -9.037635 -12.731739 0.000000 0.000000 0.000000 -139.833916 -54.680859 170.267108 -26.120387 2.005641 -22.786068 118.490764 21.534084 -3.732376 -9.610868 29.452756 33.652858 0.000000 0.000000 0.000000 -132.262461 -65.755515 178.882299 -4.127116 -3.076081 0.710022 -4.456557 -12.144148 -1.894227 -2.991575 -1.504211 -9.798377 0.000000 0.000000 0.000000 -5.431907 1.510593 -5.808433 9.423471 2.130978 3.185362 0.000000 0.000000 0.000000 16.314583 4.055696 2.783770 12.916507 -41.573698 13.896246 -5.960475 33.638412 43.169828 -21.138332 -24.388229 111.847770 0.000000 0.000000 0.000000 -6.473581 -8.897933 -12.352150 55.098989 1.825531 -5.974690 -24.397053 -41.126075 -57.703480 38.991740 27.711249 104.348106 0.000000 0.000000 0.000000 
60.331821 50.784050 21.722595 0.000000 0.000000 0.000000 -128.239315 -47.154871 176.278836 -34.427770 -23.154780 -25.860449 76.572008 44.185064 -40.893060 24.406288 -9.293873 -15.121279 0.000000 0.000000 0.000000 -144.124423 -54.865871 164.145565 -27.245698 1.845113 -22.512285 120.695207 22.328093 -4.202711 -15.089542 28.031462 35.633879 0.000000 0.000000 0.000000 -138.806492 -66.569646 170.350847 -4.155503 -3.082226 0.712234 -4.355725 -12.898297 -1.072362 -3.079883 -1.512640 -9.771541 0.000000 0.000000 0.000000 -5.715247 1.463626 -5.817864 9.016553 1.924970 3.252792 0.000000 0.000000 0.000000 16.104585 3.968610 2.714956 13.309784 -39.653237 14.275436 -4.505086 34.235606 39.768831 -21.328666 -26.689516 111.186600 0.000000 0.000000 0.000000 -6.804827 -8.946228 -12.378950 55.583342 1.401461 -4.501510 -22.993542 -41.577151 -49.935001 39.533832 27.880825 104.096167 0.000000 0.000000 0.000000 
60.333366 50.620861 23.234781 0.000000 0.000000 0.000000 -131.146216 -47.317379 170.938133 -32.995561 -24.078259 -24.430069 79.222954 42.429600 -41.506998 23.302210 -9.228581 -16.938447 0.000000 0.000000 0.000000 -147.638951 -54.312394 158.587116 -27.771269 0.730570 -22.584951 120.944031 23.093144 -3.591655 -21.083498 25.774354 37.032801 0.000000 0.000000 0.000000 -144.694675 -66.387116 162.310443 -4.169385 -3.082938 0.692158 -4.224554 -13.606693 -0.316961 -3.279678 -1.511502 -9.694417 0.000000 0.000000 0.000000 -5.987405 1.447384 -5.805266 8.618632 1.734775 3.301501 0.000000 0.000000 0.000000 15.809374 3.886891 2.621171 13.611193 -37.689510 14.658460 -2.999850 34.643027 36.240355 -21.358357 -29.080251 110.797457 0.000000 0.000000 0.000000 -7.174528 -8.921327 -12.339051 55.856628 1.043419 -3.157065 -21.428991 -41.797353 -42.346620 40.257220 27.802396 103.696786 0.000000 0.000000 0.000000 
59.984493 50.493237 24.574276 0.000000 0.000000 0.000000 -133.307261 -46.827780 166.015439 -31.430847 -24.884181 -22.971741 80.567518 41.069115 -41.561513 22.156594 -9.429188 -18.667146 0.000000 0.000000 0.000000 -150.168252 -53.263048 153.744580 -27.608559 -1.021017 -22.879576 119.272042 23.794432 -2.305517 -26.511639 23.384037 37.883487 0.000000 0.000000 0.000000 -149.247584 -65.384615 155.372105 -4.169128 -3.076859 0.652257 -4.045621 -14.212209 0.343085 -3.568746 -1.491271 -9.551623 0.000000 0.000000 0.000000 -6.309574 1.442139 -5.741333 8.229050 1.557598 3.329886 0.000000 0.000000 0.000000 15.426838 3.805106 2.558194 13.827438 -35.737694 15.024514 -1.409139 34.808051 32.613689 -21.356926 -31.483853 110.538586 0.000000 0.000000 0.000000 -7.495794 -8.854159 -12.211238 55.908408 0.710518 -2.002822 -20.199702 -41.995780 -35.394775 40.936028 27.710629 103.249203 0.000000 0.000000 0.000000 
59.299156 50.412079 25.734642 0.000000 0.000000 0.000000 -134.752857 -45.807808 161.493252 -29.643499 -25.459549 -21.472231 80.513874 40.182590 -41.227022 21.365598 -9.877005 -20.270555 0.000000 0.000000 0.000000 -151.750643 -51.824262 149.613450 -27.057217 -3.118904 -23.398184 115.840309 24.440012 -0.575336 -30.194794 21.636321 38.693315 0.000000 0.000000 0.000000 -152.360019 -63.767493 149.645647 -4.151521 -3.056727 0.616738 -3.781438 -14.642209 0.896974 -3.906825 -1.458537 -9.358829 0.000000 0.000000 0.000000 -6.725146 1.422009 -5.632533 7.848309 1.391664 3.343708 0.000000 0.000000 0.000000 14.951204 3.710470 2.545729 13.970040 -33.808992 15.358152 0.301773 34.734548 28.927449 -21.436509 -33.830432 110.339828 0.000000 0.000000 0.000000 -7.648447 -8.779522 -12.005835 55.741959 0.351570 -1.067183 -19.373663 -42.282266 -29.128534 41.464268 27.751106 102.772647 0.000000 0.000000 0.000000 
